# xmcd CD database file
#
# Track frame offsets:
#	150
#	4129
#	15466
#	32794
#	54907
#	74659
#
# Disc length: 1173 seconds
#
# Revision: 2
# Processed by: cddbd v1.5.2PL0 Copyright (c) Steve Scherf et al.
# Submitted via: CDex 1.51
#
DISCID=45049306
DTITLE=Emmure - The Complete Guide To Needlework
DYEAR=2007
DGENRE=Metal
TTITLE0=Second Hand Smoke
TTITLE1=Johnny Carson Didn't Have To Die
TTITLE2=Looking A Gift Horse In The Mouth
TTITLE3=I Should Have Called Ms. Cleo
TTITLE4=22 Exits Away
TTITLE5=A Fist Fight With Dick Tracy
EXTD=YEAR: 2007
EXTT0=
EXTT1=
EXTT2=
EXTT3=
EXTT4=
EXTT5=
PLAYORDER=
